<?xml version="1.0" encoding="UTF-8" standalone="no"?>
<!-- Created with Inkscape (http://www.inkscape.org/) -->

<svg
   width="243.15508mm"
   height="253.96359mm"
   viewBox="0 0 243.15508 253.96359"
   version="1.1"
   id="svg1"
   xml:space="preserve"
   inkscape:export-filename="edupath_text.svg"
   inkscape:export-xdpi="96"
   inkscape:export-ydpi="96"
   xmlns:inkscape="http://www.inkscape.org/namespaces/inkscape"
   xmlns:sodipodi="http://sodipodi.sourceforge.net/DTD/sodipodi-0.dtd"
   xmlns="http://www.w3.org/2000/svg"
   xmlns:svg="http://www.w3.org/2000/svg"><sodipodi:namedview
     id="namedview1"
     pagecolor="#505050"
     bordercolor="#eeeeee"
     borderopacity="1"
     inkscape:showpageshadow="0"
     inkscape:pageopacity="0"
     inkscape:pagecheckerboard="0"
     inkscape:deskcolor="#505050"
     inkscape:document-units="mm"
     inkscape:export-bgcolor="#ffffff00" /><defs
     id="defs1" /><g
     inkscape:label="Warstwa 1"
     inkscape:groupmode="layer"
     id="layer1"
     transform="translate(-1.9852952,-62.567217)"><path
       style="fill:#000000"
       d="m 44.488087,316.02084 c -12.433179,-3.08078 -13.150301,-24.23509 -1.014082,-29.91432 3.735645,-1.74811 9.868797,-1.77006 13.27311,-0.0475 0.970139,0.49089 0.970139,0.49089 0.970139,-6.75012 v -7.241 h 6.173611 6.173611 v 22.04861 22.04861 H 64.59642 c -5.468055,0 -5.468055,0 -5.468055,-0.86112 0,-1.22831 -0.549684,-1.40826 -1.858517,-0.60842 -2.839673,1.73533 -8.682089,2.34109 -12.781761,1.32525 z m 11.729861,-9.37121 1.499306,-0.68056 v -5.30078 c 0,-6.22219 -0.124005,-6.42714 -4.02099,-6.64573 -4.002394,-0.22449 -5.911142,2.10472 -5.983573,7.30163 -0.07616,5.46491 3.401242,7.64224 8.505257,5.32544 z m 24.547144,9.21526 c -3.152335,-1.08936 -5.164475,-3.02091 -6.369781,-6.11465 -0.501635,-1.28757 -0.613358,-3.30606 -0.723763,-13.07608 l -0.130559,-11.55347 h 6.174693 6.174693 l 0.124213,9.96597 c 0.06832,5.48128 0.257353,10.24965 0.420079,10.59638 0.811526,1.72914 4.342336,2.17206 6.926587,0.8689 l 1.574056,-0.79375 0.09352,-10.31875 0.09352,-10.31875 h 6.34467 6.34467 v 15.53075 15.53075 l -5.90903,-0.0967 c -5.909023,-0.0967 -5.909023,-0.0967 -6.020649,-1.06687 -0.133308,-1.15856 -0.08883,-1.15217 -1.831599,-0.26308 -3.443232,1.75661 -9.861512,2.29256 -13.285326,1.10937 z m 75.200778,0.15954 c -7.35611,-2.32643 -9.64783,-11.28035 -4.25286,-16.61624 2.74945,-2.71935 4.09181,-3.09293 11.74939,-3.2699 6.70545,-0.15496 7.12532,-0.27098 6.16821,-1.70438 -1.1545,-1.72903 -10.90796,-1.89278 -16.39876,-0.27532 -0.56028,0.16505 -0.61736,-0.16021 -0.61736,-3.51772 v -3.69959 l 1.67569,-0.54815 c 9.2287,-3.01889 20.37917,-1.81408 24.67637,2.66628 2.61606,2.72756 2.73935,3.41253 2.8627,15.90503 l 0.11059,11.20069 h -5.47447 c -5.47447,0 -5.47447,0 -5.69816,-1.19238 -0.22369,-1.19239 -0.22369,-1.19239 -1.69384,-0.37071 -3.20058,1.78884 -9.71389,2.49565 -13.1075,1.42239 z m 11.59057,-7.31916 c 1.87625,-0.96563 2.34416,-1.7422 2.34416,-3.89052 v -2.05518 h -3.29875 c -5.53463,0 -7.36398,1.56354 -5.99707,5.12566 0.55946,1.45793 4.75142,1.95242 6.95166,0.82004 z m 26.93894,7.42755 c -5.71968,-1.34682 -7.41855,-4.63065 -7.60299,-14.69616 l -0.1309,-7.14375 h -1.90406 -1.90406 v -4.58611 -4.58611 h 1.92704 1.92704 l 0.10144,-3.23146 0.10143,-3.23145 5.46805,-1.33855 c 7.48518,-1.83232 6.70278,-2.20763 6.70278,3.21534 v 4.58612 h 3.62283 3.62283 l -0.10198,2.73402 c -0.0561,1.50372 -0.18966,3.56747 -0.29682,4.58611 l -0.19485,1.85209 h -3.357 -3.357 l 0.11919,5.67553 c 0.15186,7.23136 0.39765,7.58038 5.13032,7.28512 l 2.92637,-0.18257 v 3.9751 c 0,3.97511 0,3.97511 -0.97014,4.3696 -2.5675,1.04402 -8.82921,1.42362 -11.82952,0.71713 z M 2.3311406,294.99846 V 273.8318 H 18.38253 34.43392 v 4.7625 4.7625 h -9.877778 -9.877778 v 3.52777 3.52778 h 8.643055 8.643056 v 4.7625 4.7625 h -8.643056 -8.643055 v 3.35139 3.35139 h 9.877778 9.877778 v 4.7625 4.7625 H 18.38253 2.3311406 Z m 109.3611094,-0.0197 v -21.18635 l 13.14098,0.11109 c 12.92604,0.10928 13.1756,0.12496 15.25764,0.95895 9.32887,3.7368 11.68074,18.79152 4.05062,25.92861 -3.53321,3.3049 -5.46622,3.89005 -13.31103,4.02943 l -6.79098,0.12066 v 5.61198 5.61198 h -6.17361 -6.17362 z m 21.40787,-0.31312 c 1.98253,-0.9001 2.73365,-2.35956 2.73365,-5.31164 0,-4.69493 -1.34841,-5.77002 -7.45678,-5.9453 l -4.33751,-0.12447 v 6.03349 6.0335 l 3.79237,-0.008 c 2.96009,-0.006 4.11626,-0.1548 5.26827,-0.67783 z m 75.25326,-0.54914 v -22.04861 h 6.17361 6.17361 v 7.53323 7.53323 l 1.67569,-0.79837 c 5.80273,-2.76469 14.08739,-1.86711 17.38923,1.88398 2.37755,2.70104 2.53944,3.68712 2.72004,16.56807 l 0.15951,11.37708 h -6.37107 -6.37108 l -0.10324,-10.43853 c -0.10325,-10.43854 -0.10325,-10.43854 -0.98028,-11.1483 -1.2971,-1.0497 -4.68881,-0.78135 -6.66657,0.52746 l -1.45223,0.96105 v 10.04916 10.04916 h -6.17361 -6.17361 z m -89.95835,-25.58583 c -6.21974,-1.09408 -12.34547,-4.60246 -15.20183,-8.70651 -0.78951,-1.13438 -5.430679,-2.56538 -15.765391,-4.86088 -28.096591,-6.24071 -51.97434,-7.79871 -72.396668,-4.7238 -8.6956634,1.30927 -9.5746534,1.30227 -11.0886784,-0.0883 -2.026228,-1.86104 -1.94668,1.53224 -1.955684,-83.42345 -0.0084,-79.411018 -0.0084,-79.411018 0.798504,-80.609718 1.373849,-2.04089 4.517367,-2.7389 12.4910004,-2.77361 l 2.890974,-0.0126 0.107637,-7.56234 c 0.142682,-10.0246 -0.177528,-9.64235 9.456248,-11.28836 18.391432,-3.14231 36.243609,-2.40465 51.666445,2.13489 11.441903,3.3678 20.722083,7.99311 34.157873,17.02455 3.64414,2.44956 7.58071,5.0544 8.74793,5.78852 l 2.12224,1.33478 2.36457,-2.08943 c 23.10762,-20.41881 54.23299,-29.1 88.26595,-24.61829 14.59078,1.92142 14.10971,1.50409 14.11057,12.24117 l 5.4e-4,6.90022 6.08542,0.3644 c 6.73195,0.40312 7.91287,0.75323 9.09831,2.69743 0.90295,1.48088 1.10832,159.785878 0.21008,161.935668 -1.37472,3.29016 -2.55801,3.48816 -12.21881,2.04461 -22.31543,-3.33446 -48.9655,-1.29908 -77.29066,5.90302 -9.92673,2.52401 -10.85798,2.87623 -12.27863,4.64404 -4.72729,5.88247 -15.5022,9.30528 -24.37794,7.74399 z M 99.503782,244.25704 c -1.30691,-1.14729 -7.662154,-4.72693 -11.219897,-6.3197 -19.490535,-8.72575 -41.946759,-11.16589 -60.845284,-6.6116 -5.04498,1.21578 -6.101376,1.17082 -7.738335,-0.32932 L 18.38253,229.78882 18.29168,161.4992 18.20083,93.209572 h -3.373123 -3.373123 l 0.112587,73.172068 c 0.06192,40.24463 0.194895,73.25434 0.295494,73.3549 0.100598,0.10055 2.864494,-0.28019 6.14199,-0.84609 13.31151,-2.29843 30.995459,-3.05579 42.358438,-1.81412 12.380775,1.35289 21.098607,2.90289 31.750001,5.64505 7.150797,1.84094 7.920676,2.0009 7.390694,1.53566 z m 62.106538,-3.58685 c 17.5457,-4.49197 41.00174,-5.81394 59.09028,-3.33029 3.59185,0.49318 12.97361,2.13848 14.17526,2.48595 0.55447,0.16033 0.59564,-4.63374 0.62893,-73.22236 l 0.0356,-73.393918 h -3.36553 -3.36552 l 0.008,67.934588 c 0.009,75.49817 0.21307,69.20427 -2.29107,70.55284 -1.34191,0.72267 -2.62902,0.60365 -7.41301,-0.6855 -6.96215,-1.87608 -9.44759,-2.14247 -19.93195,-2.1363 -16.13477,0.01 -26.70291,2.4111 -40.2678,9.1508 -9.95297,4.94511 -12.61582,7.05679 -6.57382,5.21313 2.18852,-0.66781 6.36037,-1.82383 9.27079,-2.56894 z m -56.85216,-5.55576 c -2.1579,-4.01415 -4.34001,-6.95348 -11.065145,-14.90486 -7.580376,-8.96256 -10.028683,-14.3391 -10.040245,-22.04861 -0.01651,-11.00881 6.176408,-19.32276 21.19844,-28.45879 11.76988,-7.15814 15.02728,-9.68777 16.59126,-12.88443 2.78704,-5.69648 0.0451,-9.43746 -10.98494,-14.98731 -15.345386,-7.72116 -19.438333,-13.03204 -15.776259,-20.47076 2.857498,-5.80441 8.794329,-9.49115 24.331119,-15.10951 3.34698,-1.21032 6.08543,-2.31427 6.08543,-2.45322 0,-0.39991 -10.33195,-8.123048 -14.99307,-11.207318 -22.611504,-14.9621 -38.536831,-20.23247 -61.197498,-20.25289 -8.274277,-0.007 -19.886089,1.12083 -20.784946,2.01962 -0.118126,0.11812 -0.255583,33.162228 -0.305459,73.431358 l -0.09068,73.21661 1.149017,-0.23598 c 24.217373,-4.97358 60.122058,2.47096 75.408736,15.63537 1.816,1.56388 1.89401,1.35181 0.47424,-1.28928 z m 54.60271,-7.99041 c 16.19152,-7.56634 39.68574,-10.44421 56.86696,-6.96577 l 3.06166,0.61984 v -73.10484 c 0,-73.104848 0,-73.104848 -0.97014,-73.316528 -6.05274,-1.3207 -23.97311,-2.04854 -31.67714,-1.28657 -18.06484,1.78672 -32.60847,7.50364 -48.81162,19.18726 -2.96584,2.13857 -2.96584,2.13857 -1.76012,2.556 13.69492,4.7413 11.2632,11.183028 -6.91571,18.320008 -10.18515,3.99865 -13.22917,6.13748 -13.22917,9.29522 0,3.3281 2.80939,5.50952 11.9765,9.29943 17.06513,7.05515 23.53837,12.499 24.67152,20.74817 1.11157,8.09215 -2.24712,13.31444 -16.0489,24.95374 -9.48968,8.00283 -11.30106,10.64754 -11.01564,16.08335 0.27628,5.26176 2.68145,8.61555 11.35355,15.83151 8.95993,7.45546 13.61683,12.15142 17.50883,17.65571 1.42765,2.01905 0.95786,2.00742 4.98942,0.12347 z"
       id="path1" /></g></svg>
