<?xml version="1.0" encoding="UTF-8" standalone="no"?>
<!-- Created with Inkscape (http://www.inkscape.org/) -->

<svg
   width="794.85913mm"
   height="206.27937mm"
   viewBox="0 0 794.85913 206.27937"
   version="1.1"
   id="svg1"
   xml:space="preserve"
   inkscape:export-filename="edupath_text_horizontal.svg"
   inkscape:export-xdpi="96"
   inkscape:export-ydpi="96"
   xmlns:inkscape="http://www.inkscape.org/namespaces/inkscape"
   xmlns:sodipodi="http://sodipodi.sourceforge.net/DTD/sodipodi-0.dtd"
   xmlns="http://www.w3.org/2000/svg"
   xmlns:svg="http://www.w3.org/2000/svg"><sodipodi:namedview
     id="namedview1"
     pagecolor="#505050"
     bordercolor="#eeeeee"
     borderopacity="1"
     inkscape:showpageshadow="0"
     inkscape:pageopacity="0"
     inkscape:pagecheckerboard="0"
     inkscape:deskcolor="#505050"
     inkscape:document-units="mm" /><defs
     id="defs1" /><g
     inkscape:label="Warstwa 1"
     inkscape:groupmode="layer"
     id="layer1"
     transform="translate(279.45545,-48.981494)"><path
       style="fill:#000000"
       d="m -163.57669,254.78641 c -3.31624,-0.73098 -7.71364,-2.46604 -9.85893,-3.89001 -1.86547,-1.23823 -4.78135,-4.16822 -4.78135,-4.8045 0,-1.66971 -26.20698,-7.47697 -42.68611,-9.45889 -17.16703,-2.06467 -33.77323,-1.94787 -47.89725,0.33686 -6.21937,1.00606 -7.22203,0.95491 -8.74741,-0.44623 -0.79038,-0.726 -1.36765,-1.66409 -1.5739,-2.55764 -0.19384,-0.83978 -0.32859,-33.54805 -0.33282,-80.78611 -0.007,-78.11051 0.004,-79.39298 0.68154,-80.50439 0.37875,-0.62117 1.17795,-1.38244 1.77601,-1.6917 1.16757,-0.60378 6.5807,-1.20465 11.02647,-1.22397 l 2.73403,-0.0119 10e-4,-7.14375 c 0.002,-9.58856 0.17187,-9.87881 6.54763,-11.17248 10.12205,-2.0538 23.88593,-2.94843 33.44641,-2.17395 21.04402,1.70474 37.60878,8.21933 59.0696,23.23092 2.46143,1.72173 5.07179,3.48995 5.80082,3.92938 l 1.3255,0.79895 1.8495,-1.66325 c 6.90277,-6.20767 19.16248,-13.96493 27.9518,-17.68634 20.3214,-8.6041 39.520384,-10.5462 65.864675,-6.66263 9.002244,1.32707 9.102512,1.45377 9.103311,11.50314 l 5.49e-4,6.89471 6.11447,0.38579 c 6.747556,0.42573 7.898337,0.76668 9.069256,2.68706 0.677627,1.11134 0.688626,2.40122 0.687988,80.68078 -4.32e-4,52.9245 -0.120938,79.98448 -0.360028,80.84529 -0.201601,0.72583 -0.903088,1.77127 -1.597808,2.38125 -1.363119,1.19683 -2.543188,1.35221 -5.709353,0.75176 -7.333412,-1.39075 -17.264195,-2.14816 -28.12434,-2.145 -17.653076,0.005 -34.37606,2.28336 -54.36696,7.40659 -9.82495,2.51792 -10.69498,2.84894 -12.10752,4.60666 -2.49474,3.10437 -8.65523,6.54385 -13.51514,7.54569 -3.23983,0.66787 -8.4552,0.68522 -11.39196,0.0379 z m -18.16805,-23.94095 c 0,-0.34718 -7.33586,-4.64269 -10.23683,-5.99417 -6.4068,-2.98475 -15.10392,-5.88525 -21.68956,-7.2335 -8.34821,-1.70908 -11.30211,-1.99698 -20.28473,-1.97704 -9.27478,0.0206 -13.14408,0.42553 -20.04261,2.09756 -5.47685,1.32744 -6.86086,1.12987 -8.4336,-1.20392 l -0.80434,-1.19356 V 147.48328 79.62573 h -3.37514 -3.37514 l 0.11195,73.17206 c 0.0616,40.24464 0.19131,73.25124 0.28833,73.34801 0.097,0.0968 2.87514,-0.27735 6.17361,-0.83137 11.71447,-1.9676 15.34485,-2.26815 27.34028,-2.26338 11.79064,0.005 16.14983,0.33816 27.62392,2.11324 7.43645,1.15044 11.34801,1.96758 19.29552,4.0309 6.45303,1.67533 7.40834,1.88814 7.40834,1.65027 z m 62.08889,-3.75154 c 21.588194,-5.41666 44.404213,-6.06177 67.556943,-1.91013 2.716389,0.48709 5.210858,0.96464 5.543264,1.06121 0.569229,0.16537 0.605498,-4.09253 0.623697,-73.22184 l 0.01932,-73.39743 h -3.357725 -3.357724 v 67.94348 c 0,62.2634 -0.04824,68.02515 -0.576983,68.92024 -0.738744,1.2506 -2.232906,2.13072 -3.617256,2.13072 -0.597722,0 -2.478228,-0.40516 -4.178903,-0.90036 -6.823641,-1.98688 -10.734668,-2.43955 -21.083803,-2.44025 -9.591856,-6.6e-4 -11.179436,0.13412 -18.74056,1.59105 -6.79844,1.30996 -13.62158,3.61168 -20.41777,6.88771 -4.90351,2.36369 -9.97858,5.26463 -11.07679,6.33155 -0.81492,0.79172 -0.69747,0.77689 3.175,-0.40092 2.21168,-0.67267 6.48186,-1.84044 9.48929,-2.59503 z m -57.02675,-5.56333 c -1.95602,-3.64375 -4.23099,-6.76624 -9.7027,-13.31736 -9.219,-11.03767 -11.40857,-15.55097 -11.38114,-23.45972 0.0157,-4.53666 0.6124,-7.3118 2.30602,-10.72531 3.3649,-6.78199 9.26254,-12.18602 20.87014,-19.12335 6.33824,-3.78808 11.30143,-7.30516 12.93611,-9.16696 3.61692,-4.11944 3.47843,-8.33426 -0.3941,-11.99416 -2.22766,-2.10535 -3.18691,-2.69293 -9.54111,-5.84438 -6.91824,-3.43118 -9.97195,-5.35808 -12.5038,-7.88993 -2.54548,-2.54548 -3.64086,-4.93736 -3.64534,-7.95998 -0.005,-3.27081 1.32802,-5.83714 4.68292,-9.0166 4.12059,-3.90511 7.9006,-5.71518 24.68238,-11.81921 1.11566,-0.4058 2.02848,-0.86015 2.02848,-1.00967 0,-0.50824 -12.50199,-9.7088 -17.4625,-12.85114 -20.14645,-12.76219 -33.12166,-17.28013 -53.28037,-18.55208 -4.12689,-0.2604 -7.55257,-0.25865 -11.53748,0.006 -6.08963,0.40424 -12.82879,1.24612 -14.2253,1.77707 l -0.86102,0.32736 v 73.21012 c 0,40.26557 0.11906,73.20991 0.26458,73.20964 0.14552,-2.6e-4 1.53458,-0.22277 3.08681,-0.49445 5.58906,-0.97825 12.17899,-1.37738 19.05,-1.1538 15.66134,0.50961 30.68546,4.18125 43.73707,10.68858 3.84586,1.91749 10.22605,5.93455 11.10196,6.98996 1.07822,1.29917 0.97112,0.37271 -0.21161,-1.8305 z m 53.12914,-7.3115 c 4.77769,-2.42104 13.80886,-5.43588 20.47816,-6.83616 8.541634,-1.79338 10.667974,-1.9924 21.16667,-1.98118 8.786848,0.009 10.626543,0.11016 14.595057,0.79949 2.497489,0.43381 4.680302,0.8749 4.850695,0.98021 0.177507,0.10971 0.309805,-31.06672 0.309805,-73.00696 0,-69.40895 -0.03196,-73.20776 -0.617362,-73.37866 -1.385223,-0.4044 -9.782464,-1.29048 -14.904861,-1.57277 -19.57646,-1.07885 -35.412054,2.08977 -51.289994,10.26286 -4.11487,2.11811 -16.20224,9.8811 -17.13459,11.00451 -0.37564,0.45263 -0.36139,0.54641 0.083,0.54641 1.19898,0 6.9533,3.23135 7.98655,4.48487 1.52861,1.85446 1.6802,2.99669 0.66075,4.97866 -1.51942,2.95401 -4.78084,4.8959 -15.6238,9.3026 -6.6086,2.6858 -10.20624,4.63952 -11.60547,6.30241 -0.71499,0.84971 -0.91815,1.47273 -0.91815,2.8157 0,3.37324 2.49629,5.20936 13.41416,9.86665 4.0971,1.74772 8.35094,3.67447 9.45297,4.28166 6.33183,3.48865 10.3129,7.10334 12.33951,11.2039 1.27812,2.5861 1.30587,2.72882 1.30587,6.71748 0,3.57005 -0.11092,4.33799 -0.89471,6.19485 -2.11154,5.00243 -4.89343,8.08312 -15.06966,16.68828 -3.73568,3.15894 -7.40814,6.56946 -8.16102,7.57893 -2.43803,3.26891 -2.67873,3.95593 -2.6824,7.65623 -0.003,2.93472 0.11911,3.61286 0.98142,5.45441 1.64627,3.51573 3.68252,5.74083 10.12775,11.067 7.2923,6.02616 13.0145,11.68492 16.38035,16.19873 1.3383,1.79476 2.57112,3.26319 2.73959,3.26319 0.16846,0 1.08182,-0.39298 2.02968,-0.8733 z M 75.253874,198.48604 c -10.182295,-1.39379 -17.352043,-6.05627 -21.117281,-13.73253 -3.257437,-6.641 -4.440725,-15.38464 -3.375205,-24.9403 1.654893,-14.84122 9.552864,-25.25909 22.119447,-29.17682 7.087829,-2.20968 17.921711,-1.58713 24.73013,1.42107 1.042789,0.46074 1.955602,0.83771 2.028473,0.83771 0.07287,0 0.132492,-6.90755 0.132492,-15.35012 v -15.35013 l 13.14097,0.0925 13.14097,0.0925 0.0895,47.54163 0.0895,47.54163 -11.53696,-0.093 -11.53696,-0.093 -0.54695,-2.18009 c -0.30083,-1.19904 -0.65486,-2.28591 -0.78675,-2.41525 -0.13188,-0.12935 -0.96625,0.26465 -1.854148,0.87554 -2.437594,1.6771 -6.394596,3.44592 -9.547723,4.26793 -3.290724,0.85787 -11.209678,1.20283 -15.169445,0.66079 z M 94.068537,178.9175 c 0.924709,-0.27461 2.546575,-1.10374 3.604147,-1.84252 l 1.922857,-1.34322 0.09286,-11.87178 0.09286,-11.87178 -1.218546,-0.92943 c -1.999527,-1.52512 -4.661724,-2.35908 -8.148293,-2.55255 -3.995365,-0.22169 -6.036181,0.53379 -8.469664,3.13538 -3.032737,3.24224 -4.397831,7.83033 -4.397831,14.78113 0,9.07685 2.085548,12.12872 8.995833,13.16399 1.629499,0.24412 5.655855,-0.11392 7.525774,-0.66922 z m 63.333243,19.45178 c -3.41075,-0.65353 -4.81086,-1.13114 -7.71179,-2.63068 -5.02578,-2.59789 -8.69344,-7.48938 -10.48505,-13.98371 -0.76195,-2.76194 -0.78111,-3.34027 -0.89733,-27.07569 l -0.11876,-24.25347 h 13.24709 13.2471 l 0.009,20.72569 c 0.005,12.84909 0.146,21.32901 0.3701,22.3132 0.53418,2.34596 1.79645,4.02616 3.74313,4.98249 1.41977,0.69748 2.22075,0.83103 4.87398,0.81265 3.67272,-0.0254 5.9688,-0.76358 9.03241,-2.90378 l 1.9037,-1.32989 0.17639,-22.21199 0.17638,-22.21198 h 13.22917 13.22917 l 0.09,33.42569 0.09,33.4257 h -12.50002 -12.50002 l -0.22734,-2.02848 c -0.12505,-1.11566 -0.28804,-2.22119 -0.36222,-2.45674 -0.0889,-0.2823 -1.14858,0.111 -3.10906,1.15391 -3.46244,1.84192 -7.1586,3.19535 -10.63965,3.89594 -3.68534,0.74172 -11.82426,0.93396 -14.86598,0.35114 z m 165.97287,-0.0314 c -6.89733,-1.3142 -11.55831,-4.1961 -14.81477,-9.16003 -2.2561,-3.43904 -2.94434,-6.22757 -2.92044,-11.83271 0.018,-4.2325 0.12669,-5.06981 0.97618,-7.52398 2.33272,-6.73916 6.91709,-10.89912 14.40114,-13.06792 4.46788,-1.29474 8.62963,-1.6331 20.08672,-1.6331 h 10.28991 l -0.24361,-1.85208 c -0.29916,-2.27443 -1.10425,-3.7179 -2.6574,-4.76457 -2.21741,-1.4943 -4.42027,-1.93164 -10.63836,-2.11202 -6.84464,-0.19857 -12.74346,0.42439 -19.39213,2.04793 -2.33409,0.56997 -4.39596,1.0363 -4.58195,1.0363 -0.20842,0 -0.30174,-3.0117 -0.24323,-7.84931 l 0.095,-7.8493 2.46944,-0.8299 c 6.64345,-2.23264 16.18344,-3.60424 25.22361,-3.62649 9.56801,-0.0236 15.56495,1.10951 21.69584,4.0992 7.22119,3.52138 11.21492,8.7178 12.7025,16.5278 0.43243,2.27034 0.52666,6.7684 0.52666,25.14024 v 22.37518 l -11.53115,-0.093 -11.53115,-0.093 -0.30848,-1.23473 c -0.16966,-0.67909 -0.46155,-1.82227 -0.64863,-2.54039 l -0.34016,-1.30567 -1.95964,1.37273 c -2.5316,1.77339 -6.45771,3.39653 -10.30756,4.26137 -4.18981,0.94121 -12.68754,1.20499 -16.34829,0.50748 z m 21.33944,-16.05325 c 1.13007,-0.42705 3.03507,-1.5165 4.23334,-2.421 l 2.17867,-1.64457 0.0991,-4.31751 0.0991,-4.31752 h -7.22544 c -3.97399,0 -8.0212,0.17066 -8.9938,0.37925 -3.66903,0.78686 -5.45754,2.91023 -5.44915,6.46938 0.008,3.33225 1.45901,5.44003 4.41107,6.40701 2.27367,0.74477 7.99711,0.4464 10.6472,-0.55504 z m 67.44257,16.36774 c -0.58208,-0.0867 -2.24896,-0.40874 -3.70417,-0.71564 -8.06758,-1.70141 -13.34478,-6.78994 -15.93271,-15.36307 -0.74019,-2.45206 -0.78642,-3.33652 -0.91406,-17.48755 l -0.13444,-14.90486 h -4.38579 -4.38578 v -9.87777 -9.87778 h 4.40973 4.40972 l 0.003,-6.79097 0.003,-6.79098 12.43253,-2.96708 c 6.83789,-1.63189 12.78972,-3.03946 13.22628,-3.12793 l 0.79375,-0.16085 v 9.9189 9.91891 h 7.63943 7.63942 l -0.23838,5.90903 c -0.13112,3.24996 -0.33868,7.69496 -0.46125,9.87777 l -0.22286,3.96875 h -7.19499 -7.195 l 0.10501,12.43542 c 0.10432,12.35327 0.11049,12.44423 0.93431,13.7693 0.45612,0.73364 1.48799,1.68614 2.29306,2.11667 1.30087,0.69567 1.95445,0.77892 5.87348,0.7481 2.95432,-0.0232 4.96475,-0.21619 6.0914,-0.58464 l 1.68168,-0.54996 -0.0942,8.85183 -0.0942,8.85183 -1.94028,0.67854 c -3.9205,1.37104 -8.13697,2.02821 -13.93472,2.17184 -3.10445,0.0769 -6.1207,0.0689 -6.70278,-0.0178 z m -434.798621,-46.7072 v -45.50833 h 34.395833 34.395835 v 10.23055 10.23056 H 24.983039 3.8163716 v 7.40833 7.40834 H 22.337206 40.85804 v 10.23055 10.23056 H 22.337206 3.8163716 v 7.40833 7.40833 H 24.983039 46.149707 v 10.23056 10.23056 H 11.753872 -22.641961 Z m 246.944451,0 v -45.50833 l 23.01875,0.008 c 24.32908,0.008 29.74972,0.22917 34.30764,1.39686 13.96344,3.57729 22.10592,15.4074 22.10014,32.10903 -10e-4,3.05323 -0.21058,5.76768 -0.5838,7.56323 -2.67163,12.85297 -11.13637,21.60408 -23.8094,24.61489 -2.63052,0.62495 -4.56839,0.73344 -15.7868,0.8838 l -12.7882,0.17139 v 12.13473 12.13474 h -13.22917 -13.22916 z m 46.293,-0.46247 c 2.42368,-1.19018 4.22713,-3.1935 5.2749,-5.85954 0.63003,-1.60308 0.77356,-2.68824 0.77359,-5.84882 3e-5,-3.34443 -0.12329,-4.18056 -0.89261,-6.052 -1.0158,-2.47101 -2.07606,-3.90412 -3.75026,-5.06906 -2.11621,-1.4725 -4.21521,-1.75533 -13.02689,-1.75533 h -8.2134 v 12.8984 12.89841 l 8.90764,-0.11021 8.90764,-0.11021 z m 171.37089,-1.65419 v -47.625 h 13.22917 13.22917 v 16.2211 16.2211 l 2.20486,-1.20601 c 5.19082,-2.83925 10.97188,-4.12663 18.43264,-4.10474 14.853,0.0436 22.61368,5.37096 25.29456,17.36365 0.70037,3.13306 0.74716,4.54925 0.89302,27.03059 l 0.15392,23.72431 h -13.43533 -13.43534 v -21.1106 c 0,-23.02217 -0.0348,-23.46716 -1.99412,-25.51227 -3.15741,-3.29563 -11.48335,-2.44397 -16.96769,1.73562 l -1.14652,0.87376 v 22.00675 22.00674 h -13.22917 -13.22917 z"
       id="path1" /></g></svg>
