<?xml version="1.0" encoding="UTF-8" standalone="no"?>
<!-- Created with Inkscape (http://www.inkscape.org/) -->

<svg
   version="1.1"
   id="svg1"
   width="933.33331"
   height="933.33331"
   viewBox="0 0 933.33331 933.33331"
   sodipodi:docname="edupath.png"
   xmlns:inkscape="http://www.inkscape.org/namespaces/inkscape"
   xmlns:sodipodi="http://sodipodi.sourceforge.net/DTD/sodipodi-0.dtd"
   xmlns="http://www.w3.org/2000/svg"
   xmlns:svg="http://www.w3.org/2000/svg">
  <defs
     id="defs1" />
  <sodipodi:namedview
     id="namedview1"
     pagecolor="#505050"
     bordercolor="#eeeeee"
     borderopacity="1"
     inkscape:showpageshadow="0"
     inkscape:pageopacity="0"
     inkscape:pagecheckerboard="0"
     inkscape:deskcolor="#505050"
     showgrid="false" />
  <g
     inkscape:groupmode="layer"
     inkscape:label="Image"
     id="g1">
    <path
       style="fill:#ffffff;fill-opacity:1;stroke:none;stroke-width:1.00157;stroke-dasharray:none;stroke-opacity:0"
       d="m 454.21483,876.30365 c -24.53152,-5.40731 -55.33334,-23.67499 -55.33334,-32.81661 0,-3.29179 -23.54791,-10.07906 -70.66666,-20.36842 -98.81403,-21.5781 -187.66566,-26.45757 -267.903563,-14.71246 -33.823734,4.95106 -39.975067,3.29931 -42.830494,-11.50084 -2.541208,-13.1715 -1.503888,-602.81304 1.069466,-607.91425 4.389277,-8.70096 17.215334,-11.8638 48.664593,-12.00046 l 10.333334,-0.0449 0.005,-27 c 0.0069,-37.25544 0.07407,-37.35377 29.328334,-42.90605 128.19891,-24.331338 229.10705,-0.86073 345.08541,80.26473 27.87549,19.49857 26.24353,18.82083 32.01609,13.29605 74.75082,-71.54218 198.43444,-110.573728 313.75304,-99.01286 78.12639,7.83229 77.14007,7.20866 77.14337,48.77575 l 0.002,26.08428 23.13642,1.44632 c 25.5241,1.59557 29.83103,2.86769 34.2509,10.11651 3.00215,4.9237 4.20997,599.79757 1.23953,610.49224 -3.64617,13.12752 -9.95821,14.66584 -40.62685,9.90124 -86.01314,-13.36277 -187.5657,-6.21342 -294.45733,20.72995 -40.43329,10.19171 -44.63437,11.7407 -50.02069,18.44327 -18.28308,22.75084 -61.50058,35.93171 -94.18863,28.72651 z m -69.4,-91.12974 C 332.23695,739.30135 199.13034,715.41456 112.44144,736.29484 91.925334,741.23645 85.671572,740.25218 80.160853,731.2143 77.603324,727.01982 77.558047,722.49509 77.55315,470.61237 l -0.005,-256.33332 H 64.794197 52.040229 l 0.420635,276.55584 c 0.23135,152.10571 0.776012,276.91108 1.210361,277.34527 0.434349,0.43419 5.534349,-0.10847 11.333333,-1.20591 97.885462,-18.52453 200.566282,-13.37651 303.210272,15.2018 14.80852,4.12302 18.69386,4.82468 16.6,2.99786 z M 620.88149,771.508 c 87.21529,-21.60779 187.26499,-22.76646 274.9876,-3.18462 2.9876,0.6669 2.9876,0.6669 3.00612,-276.68872 l 0.0185,-277.35561 h -12.67277 -12.67279 v 257.49019 257.49019 l -5.17647,5.17647 c -6.40807,6.40807 -8.62854,6.50239 -28.55717,1.21299 -77.2931,-20.51491 -170.1219,-8.1156 -243.53459,32.52937 -29.70155,16.44428 -32.43498,19.51143 -11.76706,13.20376 8.26941,-2.52375 24.6353,-6.96707 36.36863,-9.87402 z M 404.86344,750.77437 c -6.45587,-12.35918 -18.53198,-29.04682 -34.79776,-48.08606 -73.5714,-86.11599 -61.40227,-141.42005 45.24015,-205.59929 75.08576,-45.18791 76.12372,-68.26962 4.60838,-102.47926 -86.40056,-41.33005 -75.95296,-89.33145 27.63395,-126.96386 41.08786,-14.92693 39.16871,-10.38338 12.85466,-30.4333 -88.49057,-67.42516 -158.67339,-96.4315 -245.95378,-101.65195 -30.92826,-1.8499 -84.8291,1.87525 -97.64663,6.74847 -3.23156,1.22863 -5.48083,554.64064 -2.25424,554.63476 0.55,-0.001 5.8,-0.84196 11.66666,-1.8688 91.55317,-16.02442 238.32122,17.0472 279.88071,63.06624 4.21827,4.67091 3.82375,2.31201 -1.2321,-7.36695 z M 605.4837,722.97836 c 25.21028,-12.77501 63.52993,-24.0924 104.73112,-30.93145 30.2948,-5.02868 115.76479,-2.09358 126.16242,4.3325 0.67089,0.41464 1.17091,-117.41755 1.17091,-275.93183 0,-262.33304 -0.12079,-276.69076 -2.33333,-277.33668 -50.31405,-14.68841 -153.00312,-6.74573 -213.91184,16.54542 -34.65536,13.25201 -113.23835,59.95606 -100.88047,59.95606 7.66474,0 30.2543,14.73252 33.68953,21.97171 7.31745,15.4204 -7.43028,27.42651 -60.45567,49.21689 -65.95392,27.10326 -64.75624,43.63292 5.22512,72.1145 107.47573,43.74133 116.14106,91.86236 29.8859,165.96494 -62.2564,53.48504 -62.80443,74.57093 -3.21923,123.86276 27.66302,22.88421 49.24944,44.22397 61.90995,61.20252 10.41217,13.96339 9.34781,13.43003 18.02559,9.03266 z"
       id="path1" />
  </g>
</svg>
